<svg width="36" height="36" viewBox="0 0 36 36" fill="none" xmlns="http://www.w3.org/2000/svg">
<path d="M22.6651 12.9907H21.7383L21.4098 12.674C22.8176 11.0315 23.545 8.79083 23.1461 6.40934C22.5947 3.14798 19.873 0.543589 16.5882 0.144719C11.6258 -0.465319 7.44935 3.71109 8.05939 8.67351C8.45826 11.9583 11.0627 14.68 14.324 15.2314C16.7055 15.6303 18.9462 14.9029 20.5886 13.4952L20.9054 13.8236V14.7504L25.8913 19.7363C26.3723 20.2173 27.1583 20.2173 27.6393 19.7363C28.1202 19.2553 28.1202 18.4693 27.6393 17.9883L22.6651 12.9907ZM15.6262 12.9907C12.7051 12.9907 10.347 10.6327 10.347 7.71153C10.347 4.79039 12.7051 2.43236 15.6262 2.43236C18.5473 2.43236 20.9054 4.79039 20.9054 7.71153C20.9054 10.6327 18.5473 12.9907 15.6262 12.9907Z" fill="#C3C3C3"/>
<path d="M4.26 27.507C4.51333 27.547 4.74333 27.6504 4.95 27.817C5.16333 27.9837 5.33 28.1904 5.45 28.437C5.57667 28.6837 5.64 28.947 5.64 29.227C5.64 29.5804 5.55 29.9004 5.37 30.187C5.19 30.467 4.92667 30.6904 4.58 30.857C4.24 31.017 3.83667 31.097 3.37 31.097H0.77V24.127H3.27C3.74333 24.127 4.14667 24.207 4.48 24.367C4.81333 24.5204 5.06333 24.7304 5.23 24.997C5.39667 25.2637 5.48 25.5637 5.48 25.897C5.48 26.3104 5.36667 26.6537 5.14 26.927C4.92 27.1937 4.62667 27.387 4.26 27.507ZM1.68 27.137H3.21C3.63667 27.137 3.96667 27.037 4.2 26.837C4.43333 26.637 4.55 26.3604 4.55 26.007C4.55 25.6537 4.43333 25.377 4.2 25.177C3.96667 24.977 3.63 24.877 3.19 24.877H1.68V27.137ZM3.29 30.347C3.74333 30.347 4.09667 30.2404 4.35 30.027C4.60333 29.8137 4.73 29.517 4.73 29.137C4.73 28.7504 4.59667 28.447 4.33 28.227C4.06333 28.0004 3.70667 27.887 3.26 27.887H1.68V30.347H3.29ZM7.81281 26.507C7.97281 26.1937 8.19948 25.9504 8.49281 25.777C8.79281 25.6037 9.15615 25.517 9.58281 25.517V26.457H9.34281C8.32281 26.457 7.81281 27.0104 7.81281 28.117V31.097H6.90281V25.617H7.81281V26.507ZM13.0233 31.187C12.5099 31.187 12.0433 31.0704 11.6233 30.837C11.2099 30.6037 10.8833 30.2737 10.6433 29.847C10.4099 29.4137 10.2933 28.9137 10.2933 28.347C10.2933 27.787 10.4133 27.2937 10.6533 26.867C10.8999 26.4337 11.2333 26.1037 11.6533 25.877C12.0733 25.6437 12.5433 25.527 13.0633 25.527C13.5833 25.527 14.0533 25.6437 14.4733 25.877C14.8933 26.1037 15.2233 26.4304 15.4633 26.857C15.7099 27.2837 15.8333 27.7804 15.8333 28.347C15.8333 28.9137 15.7066 29.4137 15.4533 29.847C15.2066 30.2737 14.8699 30.6037 14.4433 30.837C14.0166 31.0704 13.5433 31.187 13.0233 31.187ZM13.0233 30.387C13.3499 30.387 13.6566 30.3104 13.9433 30.157C14.2299 30.0037 14.4599 29.7737 14.6333 29.467C14.8133 29.1604 14.9033 28.787 14.9033 28.347C14.9033 27.907 14.8166 27.5337 14.6433 27.227C14.4699 26.9204 14.2433 26.6937 13.9633 26.547C13.6833 26.3937 13.3799 26.317 13.0533 26.317C12.7199 26.317 12.4133 26.3937 12.1333 26.547C11.8599 26.6937 11.6399 26.9204 11.4733 27.227C11.3066 27.5337 11.2233 27.907 11.2233 28.347C11.2233 28.7937 11.3033 29.1704 11.4633 29.477C11.6299 29.7837 11.8499 30.0137 12.1233 30.167C12.3966 30.3137 12.6966 30.387 13.0233 30.387ZM24.3298 25.617L22.6198 31.097H21.6798L20.3598 26.747L19.0398 31.097H18.0998L16.3798 25.617H17.3098L18.5698 30.217L19.9298 25.617H20.8598L22.1898 30.227L23.4298 25.617H24.3298ZM27.1729 31.187C26.7529 31.187 26.3762 31.117 26.0429 30.977C25.7096 30.8304 25.4462 30.6304 25.2529 30.377C25.0596 30.117 24.9529 29.8204 24.9329 29.487H25.8729C25.8996 29.7604 26.0262 29.9837 26.2529 30.157C26.4862 30.3304 26.7896 30.417 27.1629 30.417C27.5096 30.417 27.7829 30.3404 27.9829 30.187C28.1829 30.0337 28.2829 29.8404 28.2829 29.607C28.2829 29.367 28.1762 29.1904 27.9629 29.077C27.7496 28.957 27.4196 28.8404 26.9729 28.727C26.5662 28.6204 26.2329 28.5137 25.9729 28.407C25.7196 28.2937 25.4996 28.1304 25.3129 27.917C25.1329 27.697 25.0429 27.4104 25.0429 27.057C25.0429 26.777 25.1262 26.5204 25.2929 26.287C25.4596 26.0537 25.6962 25.8704 26.0029 25.737C26.3096 25.597 26.6596 25.527 27.0529 25.527C27.6596 25.527 28.1496 25.6804 28.5229 25.987C28.8962 26.2937 29.0962 26.7137 29.1229 27.247H28.2129C28.1929 26.9604 28.0762 26.7304 27.8629 26.557C27.6562 26.3837 27.3762 26.297 27.0229 26.297C26.6962 26.297 26.4362 26.367 26.2429 26.507C26.0496 26.647 25.9529 26.8304 25.9529 27.057C25.9529 27.237 26.0096 27.387 26.1229 27.507C26.2429 27.6204 26.3896 27.7137 26.5629 27.787C26.7429 27.8537 26.9896 27.9304 27.3029 28.017C27.6962 28.1237 28.0162 28.2304 28.2629 28.337C28.5096 28.437 28.7196 28.5904 28.8929 28.797C29.0729 29.0037 29.1662 29.2737 29.1729 29.607C29.1729 29.907 29.0896 30.177 28.9229 30.417C28.7562 30.657 28.5196 30.847 28.2129 30.987C27.9129 31.1204 27.5662 31.187 27.1729 31.187ZM35.4575 28.147C35.4575 28.3204 35.4475 28.5037 35.4275 28.697H31.0475C31.0808 29.237 31.2642 29.6604 31.5975 29.967C31.9375 30.267 32.3475 30.417 32.8275 30.417C33.2208 30.417 33.5475 30.327 33.8075 30.147C34.0742 29.9604 34.2608 29.7137 34.3675 29.407H35.3475C35.2008 29.9337 34.9075 30.3637 34.4675 30.697C34.0275 31.0237 33.4808 31.187 32.8275 31.187C32.3075 31.187 31.8408 31.0704 31.4275 30.837C31.0208 30.6037 30.7008 30.2737 30.4675 29.847C30.2342 29.4137 30.1175 28.9137 30.1175 28.347C30.1175 27.7804 30.2308 27.2837 30.4575 26.857C30.6842 26.4304 31.0008 26.1037 31.4075 25.877C31.8208 25.6437 32.2942 25.527 32.8275 25.527C33.3475 25.527 33.8075 25.6404 34.2075 25.867C34.6075 26.0937 34.9142 26.407 35.1275 26.807C35.3475 27.2004 35.4575 27.647 35.4575 28.147ZM34.5175 27.957C34.5175 27.6104 34.4408 27.3137 34.2875 27.067C34.1342 26.8137 33.9242 26.6237 33.6575 26.497C33.3975 26.3637 33.1075 26.297 32.7875 26.297C32.3275 26.297 31.9342 26.4437 31.6075 26.737C31.2875 27.0304 31.1042 27.437 31.0575 27.957H34.5175Z" fill="#C3C3C3"/>
</svg>
