<svg width="31" height="36" viewBox="0 0 31 36" fill="none" xmlns="http://www.w3.org/2000/svg">
<path d="M13.1124 17.3965V14.8484C13.1124 14.1979 13.6435 13.6706 14.2987 13.6706H16.6939C17.0085 13.6706 17.3103 13.7947 17.5328 14.0156C17.7553 14.2364 17.8803 14.536 17.8803 14.8484V17.3965C17.8783 17.6669 17.9851 17.9269 18.177 18.1188C18.3689 18.3107 18.6301 18.4187 18.9025 18.4187H20.5366C21.2997 18.4206 22.0323 18.1211 22.5727 17.586C23.113 17.051 23.4167 16.3245 23.4167 15.5669V8.30773C23.4167 7.69573 23.1434 7.11522 22.6706 6.72257L17.1117 2.31524C16.1448 1.54248 14.7593 1.56743 13.8212 2.3745L8.38922 6.72257C7.89399 7.10364 7.598 7.68588 7.58337 8.30773V15.5595C7.58337 17.1386 8.87286 18.4187 10.4635 18.4187H12.0603C12.6261 18.4187 13.0859 17.9655 13.09 17.4039L13.1124 17.3965Z" fill="#FFFFFF"/>
<path d="M6.48 24.1053V31.0853H5.08V28.1153H2.09V31.0853H0.69V24.1053H2.09V26.9753H5.08V24.1053H6.48ZM10.318 31.1753C9.78464 31.1753 9.30464 31.0587 8.87797 30.8253C8.4513 30.5853 8.11464 30.2487 7.86797 29.8153C7.62797 29.382 7.50797 28.882 7.50797 28.3153C7.50797 27.7487 7.6313 27.2487 7.87797 26.8153C8.1313 26.382 8.47464 26.0487 8.90797 25.8153C9.3413 25.5753 9.82464 25.4553 10.358 25.4553C10.8913 25.4553 11.3746 25.5753 11.808 25.8153C12.2413 26.0487 12.5813 26.382 12.828 26.8153C13.0813 27.2487 13.208 27.7487 13.208 28.3153C13.208 28.882 13.078 29.382 12.818 29.8153C12.5646 30.2487 12.218 30.5853 11.778 30.8253C11.3446 31.0587 10.858 31.1753 10.318 31.1753ZM10.318 29.9553C10.5713 29.9553 10.808 29.8953 11.028 29.7753C11.2546 29.6487 11.4346 29.462 11.568 29.2153C11.7013 28.9687 11.768 28.6687 11.768 28.3153C11.768 27.7887 11.628 27.3853 11.348 27.1053C11.0746 26.8187 10.738 26.6753 10.338 26.6753C9.93797 26.6753 9.6013 26.8187 9.32797 27.1053C9.0613 27.3853 8.92797 27.7887 8.92797 28.3153C8.92797 28.842 9.05797 29.2487 9.31797 29.5353C9.58464 29.8153 9.91797 29.9553 10.318 29.9553ZM21.1149 25.4653C21.7949 25.4653 22.3416 25.6753 22.7549 26.0953C23.1749 26.5087 23.3849 27.0887 23.3849 27.8353V31.0853H21.9849V28.0253C21.9849 27.592 21.8749 27.262 21.6549 27.0353C21.4349 26.802 21.1349 26.6853 20.7549 26.6853C20.3749 26.6853 20.0716 26.802 19.8449 27.0353C19.6249 27.262 19.5149 27.592 19.5149 28.0253V31.0853H18.1149V28.0253C18.1149 27.592 18.0049 27.262 17.7849 27.0353C17.5649 26.802 17.2649 26.6853 16.8849 26.6853C16.4983 26.6853 16.1916 26.802 15.9649 27.0353C15.7449 27.262 15.6349 27.592 15.6349 28.0253V31.0853H14.2349V25.5453H15.6349V26.2153C15.8149 25.982 16.0449 25.7987 16.3249 25.6653C16.6116 25.532 16.9249 25.4653 17.2649 25.4653C17.6983 25.4653 18.0849 25.5587 18.4249 25.7453C18.7649 25.9253 19.0283 26.1853 19.2149 26.5253C19.3949 26.2053 19.6549 25.9487 19.9949 25.7553C20.3416 25.562 20.7149 25.4653 21.1149 25.4653ZM29.8634 28.1953C29.8634 28.3953 29.8501 28.5753 29.8234 28.7353H25.7734C25.8068 29.1353 25.9468 29.4487 26.1934 29.6753C26.4401 29.902 26.7434 30.0153 27.1034 30.0153C27.6234 30.0153 27.9934 29.792 28.2134 29.3453H29.7234C29.5634 29.8787 29.2568 30.3187 28.8034 30.6653C28.3501 31.0053 27.7934 31.1753 27.1334 31.1753C26.6001 31.1753 26.1201 31.0587 25.6934 30.8253C25.2734 30.5853 24.9434 30.2487 24.7034 29.8153C24.4701 29.382 24.3534 28.882 24.3534 28.3153C24.3534 27.742 24.4701 27.2387 24.7034 26.8053C24.9368 26.372 25.2634 26.0387 25.6834 25.8053C26.1034 25.572 26.5868 25.4553 27.1334 25.4553C27.6601 25.4553 28.1301 25.5687 28.5434 25.7953C28.9634 26.022 29.2868 26.3453 29.5134 26.7653C29.7468 27.1787 29.8634 27.6553 29.8634 28.1953ZM28.4134 27.7953C28.4068 27.4353 28.2768 27.1487 28.0234 26.9353C27.7701 26.7153 27.4601 26.6053 27.0934 26.6053C26.7468 26.6053 26.4534 26.712 26.2134 26.9253C25.9801 27.132 25.8368 27.422 25.7834 27.7953H28.4134Z" fill="#FFFFFF"/>
</svg>
