<svg width="31" height="36" viewBox="0 0 31 36" fill="none" xmlns="http://www.w3.org/2000/svg">
<path fill-rule="evenodd" clip-rule="evenodd" d="M15.4873 12.8738C12.2643 12.8738 9.5119 13.3611 9.5119 15.3127C9.5119 17.2643 12.2468 17.7691 15.4873 17.7691C18.7103 17.7691 21.4619 17.281 21.4619 15.3302C21.4619 13.3794 18.7278 12.8738 15.4873 12.8738Z" stroke="#C3C3C3" stroke-width="1.5" stroke-linecap="round" stroke-linejoin="round"/>
<path fill-rule="evenodd" clip-rule="evenodd" d="M15.4873 10.0902C17.6024 10.0902 19.3167 8.37517 19.3167 6.26009C19.3167 4.14501 17.6024 2.43073 15.4873 2.43073C13.3722 2.43073 11.6571 4.14501 11.6571 6.26009C11.65 8.36803 13.3532 10.0831 15.4603 10.0902H15.4873Z" stroke="#C3C3C3" stroke-width="1.42857" stroke-linecap="round" stroke-linejoin="round"/>
<path d="M5.43 26.1553C5.43 26.7353 5.23 27.2187 4.83 27.6053C4.43667 27.9853 3.83333 28.1753 3.02 28.1753H1.68V31.0853H0.77V24.1153H3.02C3.80667 24.1153 4.40333 24.3053 4.81 24.6853C5.22333 25.0653 5.43 25.5553 5.43 26.1553ZM3.02 27.4253C3.52667 27.4253 3.9 27.3153 4.14 27.0953C4.38 26.8753 4.5 26.562 4.5 26.1553C4.5 25.2953 4.00667 24.8653 3.02 24.8653H1.68V27.4253H3.02ZM7.47102 26.4953C7.63102 26.182 7.85768 25.9387 8.15102 25.7653C8.45102 25.592 8.81435 25.5053 9.24102 25.5053V26.4453H9.00102C7.98102 26.4453 7.47102 26.9987 7.47102 28.1053V31.0853H6.56102V25.6053H7.47102V26.4953ZM12.6815 31.1753C12.1682 31.1753 11.7015 31.0587 11.2815 30.8253C10.8682 30.592 10.5415 30.262 10.3015 29.8353C10.0682 29.402 9.95148 28.902 9.95148 28.3353C9.95148 27.7753 10.0715 27.282 10.3115 26.8553C10.5582 26.422 10.8915 26.092 11.3115 25.8653C11.7315 25.632 12.2015 25.5153 12.7215 25.5153C13.2415 25.5153 13.7115 25.632 14.1315 25.8653C14.5515 26.092 14.8815 26.4187 15.1215 26.8453C15.3682 27.272 15.4915 27.7687 15.4915 28.3353C15.4915 28.902 15.3648 29.402 15.1115 29.8353C14.8648 30.262 14.5282 30.592 14.1015 30.8253C13.6748 31.0587 13.2015 31.1753 12.6815 31.1753ZM12.6815 30.3753C13.0082 30.3753 13.3148 30.2987 13.6015 30.1453C13.8882 29.992 14.1182 29.762 14.2915 29.4553C14.4715 29.1487 14.5615 28.7753 14.5615 28.3353C14.5615 27.8953 14.4748 27.522 14.3015 27.2153C14.1282 26.9087 13.9015 26.682 13.6215 26.5353C13.3415 26.382 13.0382 26.3053 12.7115 26.3053C12.3782 26.3053 12.0715 26.382 11.7915 26.5353C11.5182 26.682 11.2982 26.9087 11.1315 27.2153C10.9648 27.522 10.8815 27.8953 10.8815 28.3353C10.8815 28.782 10.9615 29.1587 11.1215 29.4653C11.2882 29.772 11.5082 30.002 11.7815 30.1553C12.0548 30.302 12.3548 30.3753 12.6815 30.3753ZM18.918 26.3553H17.768V31.0853H16.858V26.3553H16.148V25.6053H16.858V25.2153C16.858 24.602 17.0146 24.1553 17.328 23.8753C17.648 23.5887 18.158 23.4453 18.858 23.4453V24.2053C18.458 24.2053 18.1746 24.2853 18.008 24.4453C17.848 24.5987 17.768 24.8553 17.768 25.2153V25.6053H18.918V26.3553ZM20.449 24.7153C20.2757 24.7153 20.129 24.6553 20.009 24.5353C19.889 24.4153 19.829 24.2687 19.829 24.0953C19.829 23.922 19.889 23.7753 20.009 23.6553C20.129 23.5353 20.2757 23.4753 20.449 23.4753C20.6157 23.4753 20.7557 23.5353 20.869 23.6553C20.989 23.7753 21.049 23.922 21.049 24.0953C21.049 24.2687 20.989 24.4153 20.869 24.5353C20.7557 24.6553 20.6157 24.7153 20.449 24.7153ZM20.889 25.6053V31.0853H19.979V25.6053H20.889ZM23.3499 23.6853V31.0853H22.4399V23.6853H23.3499ZM29.9009 28.1353C29.9009 28.3087 29.8909 28.492 29.8709 28.6853H25.4909C25.5242 29.2253 25.7075 29.6487 26.0409 29.9553C26.3809 30.2553 26.7909 30.4053 27.2709 30.4053C27.6642 30.4053 27.9909 30.3153 28.2509 30.1353C28.5175 29.9487 28.7042 29.702 28.8109 29.3953H29.7909C29.6442 29.922 29.3509 30.352 28.9109 30.6853C28.4709 31.012 27.9242 31.1753 27.2709 31.1753C26.7509 31.1753 26.2842 31.0587 25.8709 30.8253C25.4642 30.592 25.1442 30.262 24.9109 29.8353C24.6775 29.402 24.5609 28.902 24.5609 28.3353C24.5609 27.7687 24.6742 27.272 24.9009 26.8453C25.1275 26.4187 25.4442 26.092 25.8509 25.8653C26.2642 25.632 26.7375 25.5153 27.2709 25.5153C27.7909 25.5153 28.2509 25.6287 28.6509 25.8553C29.0509 26.082 29.3575 26.3953 29.5709 26.7953C29.7909 27.1887 29.9009 27.6353 29.9009 28.1353ZM28.9609 27.9453C28.9609 27.5987 28.8842 27.302 28.7309 27.0553C28.5775 26.802 28.3675 26.612 28.1009 26.4853C27.8409 26.352 27.5509 26.2853 27.2309 26.2853C26.7709 26.2853 26.3775 26.432 26.0509 26.7253C25.7309 27.0187 25.5475 27.4253 25.5009 27.9453H28.9609Z" fill="#C3C3C3"/>
</svg>
