<svg width="35" height="36" viewBox="0 0 35 36" fill="none" xmlns="http://www.w3.org/2000/svg">
<path fill-rule="evenodd" clip-rule="evenodd" d="M12.4167 4.41864C11.3121 4.41864 10.4167 5.31407 10.4167 6.41864V6.99733C10.4167 7.22858 10.5638 7.43017 10.7621 7.54907C11.5372 8.01368 12.0695 8.9749 12.0695 10.0853C12.0695 11.1957 11.5372 12.1569 10.7621 12.6215C10.5638 12.7404 10.4167 12.942 10.4167 13.1733V13.752C10.4167 14.8565 11.3121 15.752 12.4167 15.752H22.5834C23.6879 15.752 24.5834 14.8565 24.5834 13.752V13.1732C24.5834 12.942 24.4363 12.7404 24.238 12.6215C23.4629 12.1569 22.9306 11.1957 22.9306 10.0853C22.9306 8.97494 23.4629 8.01375 24.238 7.54912C24.4363 7.43022 24.5834 7.22864 24.5834 6.9974V6.41864C24.5834 5.31407 23.6879 4.41864 22.5834 4.41864H12.4167ZM18.875 5.12697V7.60614C18.875 8.02035 19.2108 8.35614 19.625 8.35614C20.0392 8.35614 20.375 8.02035 20.375 7.60614V5.12697H18.875ZM20.375 12.5645C20.375 12.1503 20.0392 11.8145 19.625 11.8145C19.2108 11.8145 18.875 12.1503 18.875 12.5645V15.0436H20.375V12.5645Z" fill="#C3C3C3"/>
<path d="M5.06 24.1153V24.8553H3.16V31.0853H2.25V24.8553H0.34V24.1153H5.06ZM6.65016 24.7153C6.47682 24.7153 6.33016 24.6553 6.21016 24.5353C6.09016 24.4153 6.03016 24.2687 6.03016 24.0953C6.03016 23.922 6.09016 23.7753 6.21016 23.6553C6.33016 23.5353 6.47682 23.4753 6.65016 23.4753C6.81682 23.4753 6.95682 23.5353 7.07016 23.6553C7.19016 23.7753 7.25016 23.922 7.25016 24.0953C7.25016 24.2687 7.19016 24.4153 7.07016 24.5353C6.95682 24.6553 6.81682 24.7153 6.65016 24.7153ZM7.09016 25.6053V31.0853H6.18016V25.6053H7.09016ZM8.30109 28.3353C8.30109 27.7687 8.41443 27.2753 8.64109 26.8553C8.86776 26.4287 9.18109 26.0987 9.58109 25.8653C9.98776 25.632 10.4511 25.5153 10.9711 25.5153C11.6444 25.5153 12.1978 25.6787 12.6311 26.0053C13.0711 26.332 13.3611 26.7853 13.5011 27.3653H12.5211C12.4278 27.032 12.2444 26.7687 11.9711 26.5753C11.7044 26.382 11.3711 26.2853 10.9711 26.2853C10.4511 26.2853 10.0311 26.4653 9.71109 26.8253C9.39109 27.1787 9.23109 27.682 9.23109 28.3353C9.23109 28.9953 9.39109 29.5053 9.71109 29.8653C10.0311 30.2253 10.4511 30.4053 10.9711 30.4053C11.3711 30.4053 11.7044 30.312 11.9711 30.1253C12.2378 29.9387 12.4211 29.672 12.5211 29.3253H13.5011C13.3544 29.8853 13.0611 30.3353 12.6211 30.6753C12.1811 31.0087 11.6311 31.1753 10.9711 31.1753C10.4511 31.1753 9.98776 31.0587 9.58109 30.8253C9.18109 30.592 8.86776 30.262 8.64109 29.8353C8.41443 29.4087 8.30109 28.9087 8.30109 28.3353ZM17.7753 31.0853L15.6253 28.6653V31.0853H14.7153V23.6853H15.6253V28.0353L17.7353 25.6053H19.0053L16.4253 28.3353L19.0153 31.0853H17.7753ZM24.8618 28.1353C24.8618 28.3087 24.8518 28.492 24.8318 28.6853H20.4518C20.4851 29.2253 20.6685 29.6487 21.0018 29.9553C21.3418 30.2553 21.7518 30.4053 22.2318 30.4053C22.6251 30.4053 22.9518 30.3153 23.2118 30.1353C23.4785 29.9487 23.6651 29.702 23.7718 29.3953H24.7518C24.6051 29.922 24.3118 30.352 23.8718 30.6853C23.4318 31.012 22.8851 31.1753 22.2318 31.1753C21.7118 31.1753 21.2451 31.0587 20.8318 30.8253C20.4251 30.592 20.1051 30.262 19.8718 29.8353C19.6385 29.402 19.5218 28.902 19.5218 28.3353C19.5218 27.7687 19.6351 27.272 19.8618 26.8453C20.0885 26.4187 20.4051 26.092 20.8118 25.8653C21.2251 25.632 21.6985 25.5153 22.2318 25.5153C22.7518 25.5153 23.2118 25.6287 23.6118 25.8553C24.0118 26.082 24.3185 26.3953 24.5318 26.7953C24.7518 27.1887 24.8618 27.6353 24.8618 28.1353ZM23.9218 27.9453C23.9218 27.5987 23.8451 27.302 23.6918 27.0553C23.5385 26.802 23.3285 26.612 23.0618 26.4853C22.8018 26.352 22.5118 26.2853 22.1918 26.2853C21.7318 26.2853 21.3385 26.432 21.0118 26.7253C20.6918 27.0187 20.5085 27.4253 20.4618 27.9453H23.9218ZM27.173 26.3553V29.5853C27.173 29.852 27.2296 30.042 27.343 30.1553C27.4563 30.262 27.653 30.3153 27.933 30.3153H28.603V31.0853H27.783C27.2763 31.0853 26.8963 30.9687 26.643 30.7353C26.3896 30.502 26.263 30.1187 26.263 29.5853V26.3553H25.553V25.6053H26.263V24.2253H27.173V25.6053H28.603V26.3553H27.173ZM31.6455 31.1753C31.2255 31.1753 30.8489 31.1053 30.5155 30.9653C30.1822 30.8187 29.9189 30.6187 29.7255 30.3653C29.5322 30.1053 29.4255 29.8087 29.4055 29.4753H30.3455C30.3722 29.7487 30.4989 29.972 30.7255 30.1453C30.9589 30.3187 31.2622 30.4053 31.6355 30.4053C31.9822 30.4053 32.2555 30.3287 32.4555 30.1753C32.6555 30.022 32.7555 29.8287 32.7555 29.5953C32.7555 29.3553 32.6489 29.1787 32.4355 29.0653C32.2222 28.9453 31.8922 28.8287 31.4455 28.7153C31.0389 28.6087 30.7055 28.502 30.4455 28.3953C30.1922 28.282 29.9722 28.1187 29.7855 27.9053C29.6055 27.6853 29.5155 27.3987 29.5155 27.0453C29.5155 26.7653 29.5989 26.5087 29.7655 26.2753C29.9322 26.042 30.1689 25.8587 30.4755 25.7253C30.7822 25.5853 31.1322 25.5153 31.5255 25.5153C32.1322 25.5153 32.6222 25.6687 32.9955 25.9753C33.3689 26.282 33.5689 26.702 33.5955 27.2353H32.6855C32.6655 26.9487 32.5489 26.7187 32.3355 26.5453C32.1289 26.372 31.8489 26.2853 31.4955 26.2853C31.1689 26.2853 30.9089 26.3553 30.7155 26.4953C30.5222 26.6353 30.4255 26.8187 30.4255 27.0453C30.4255 27.2253 30.4822 27.3753 30.5955 27.4953C30.7155 27.6087 30.8622 27.702 31.0355 27.7753C31.2155 27.842 31.4622 27.9187 31.7755 28.0053C32.1689 28.112 32.4889 28.2187 32.7355 28.3253C32.9822 28.4253 33.1922 28.5787 33.3655 28.7853C33.5455 28.992 33.6389 29.262 33.6455 29.5953C33.6455 29.8953 33.5622 30.1653 33.3955 30.4053C33.2289 30.6453 32.9922 30.8353 32.6855 30.9753C32.3855 31.1087 32.0389 31.1753 31.6455 31.1753Z" fill="#C3C3C3"/>
</svg>
